<?xml version="1.0" encoding="utf-8"?>
<!-- Generator: Adobe Illustrator 22.0.0, SVG Export Plug-In . SVG Version: 6.00 Build 0)  -->
<svg version="1.1" xmlns="http://www.w3.org/2000/svg" xmlns:xlink="http://www.w3.org/1999/xlink" x="0px" y="0px"
	 viewBox="0 0 600 600" style="enable-background:new 0 0 600 600;" xml:space="preserve">
<style type="text/css">
	.st0{display:none;}
	.st1{display:inline;}
	.st2{fill:#FF3D34;}
	.st3{fill:none;}
	.st4{font-family:'GlacialIndifference-Bold';}
	.st5{font-size:72px;}
</style>
<g id="Layer_1" class="st0">
	<rect class="st1" width="600" height="600"/>
</g>
<g id="Layer_3">
	<path class="st2" d="M70.5,322.3L70.5,322.3c-24,0-43.5-19.5-43.5-43.5v-26.4c0-24,19.5-43.5,43.5-43.5h0c24,0,43.5,19.5,43.5,43.5
		v26.4C113.9,302.9,94.5,322.3,70.5,322.3z"/>
</g>
<g id="Layer_2">
	<rect x="113.9" y="234.3" class="st3" width="444.7" height="82.7"/>
	<text transform="matrix(1 0 0 1 113.9261 288.3335)"><tspan x="0" y="0" class="st4 st5">&lt;B</tspan><tspan x="77.9" y="0" class="st2 st4 st5">IZH</tspan><tspan x="185.3" y="0" class="st4 st5">TECH</tspan><tspan x="362.4" y="0" class="st2 st4 st5">/</tspan><tspan x="399.7" y="0" class="st4 st5">&gt;</tspan></text>
	<g>
		<path d="M39.1,251.6c0,0,0.1,0,0.1-0.1c0-0.5,0.3-0.8,0.5-1.2c0.2-0.5,0.5-0.9,1-1.3c0.5-0.4,1-0.8,1.6-1c0.5-0.1,0.9-0.5,1.4-0.4
			c0.2,0,0.5-0.1,0.7-0.2c0.2,0,0.4-0.1,0.6-0.1c0.4,0,0.9-0.1,1.3-0.1c0.6,0,1.2,0.1,1.8,0.2c0.2,0,0.4,0,0.6,0.3
			c0.1,0.2,0.4,0.2,0.6,0.3c0.4,0.3,0.9,0.6,1.3,0.9c0.5,0.4,0.8,1,1.3,1.4c0.3,0.3,0.5,0.7,0.6,1.1c0.1,0.4,0.3,0.8,0.4,1.2
			c0.2,0.4,0.4,0.8,0.6,1.2c0.1,0.2,0.1,0.4,0.1,0.7c0,0-0.1,0-0.1,0c0.1,0,0.2,0.1,0.2,0.1c0.1,0.3,0.1,0.7,0.3,1
			c0.2,0.4,0.3,0.8,0.5,1.1c0.1,0.3,0.2,0.7,0.3,1c0,0,0.1,0,0.1,0c0-0.1,0-0.2,0-0.3c0-0.5,0-0.9,0-1.4c0-0.7,0-1.4,0-2.1
			c0-0.7,0-1.3-0.1-2c0-0.2,0-0.4,0-0.5c0-0.3,0.1-0.6,0-0.8c-0.1-0.2,0-0.4,0-0.6c0-0.2,0-0.5,0-0.7c0-0.3,0.1-0.6,0-0.8
			c-0.1-0.2,0-0.4,0-0.6c0-0.2,0-0.5,0-0.7c0-0.3,0.1-0.5,0-0.8c0-0.2-0.1-0.5-0.1-0.7c0-0.3,0.1-0.5,0.1-0.8c0-0.1,0-0.3,0-0.4
			c0-0.2,0-0.4,0-0.7c0-0.2,0-0.5,0-0.7c0-0.3,0.1-0.6,0-0.8c-0.1-0.2,0-0.4,0-0.6c0-0.2-0.1-0.5,0-0.7c0-0.3,0.1-0.6,0-0.8
			c-0.1-0.2,0-0.4,0-0.6c0-0.2,0-0.5,0-0.7c0-0.3,0.1-0.5,0-0.8c0-0.2-0.1-0.5-0.1-0.7c0-0.3,0.1-0.5,0-0.8c0-0.2,0-0.4,0-0.6
			c0-0.4-0.1-0.7-0.1-1.1c0-0.4,0-0.9,0.1-1.3c0-0.2,0-0.4,0-0.6c0-0.3-0.1-0.6,0-0.8c0-0.2,0.1-0.5,0.1-0.7c0-0.3,0-0.5-0.1-0.8
			c0-0.2,0-0.5-0.1-0.7c0,0,0,0,0-0.1c0,0,0,0,0,0c0,0,0,0,0,0c0-0.1,0-0.3,0-0.4c0,0,0,0,0-0.1c0,0,0,0,0,0c0,0,0,0,0,0
			c0-0.1,0-0.3,0-0.4c0,0,0,0,0-0.1c0,0,0,0,0,0c0,0,0,0,0,0c0-0.1,0-0.3,0-0.4c0,0,0,0,0-0.1c0,0,0,0,0,0c0,0,0,0,0,0
			c0-0.1,0-0.3,0-0.4c0,0,0,0,0-0.1c0,0,0,0,0,0c0,0,0,0,0,0c0-0.1,0-0.3,0-0.4c0,0,0,0,0-0.1c0,0,0,0,0,0c0,0,0,0,0,0
			c0-0.1,0-0.3,0-0.4c0,0,0,0,0-0.1c0,0,0,0,0,0c0,0,0,0,0,0c0-0.1,0-0.3-0.1-0.4c0-0.2,0.2-0.3,0-0.5c0-0.3,0.1-0.6,0.1-0.9
			c0-0.5,0-1,0-1.5c0-0.1-0.1-0.1-0.1-0.2c0-0.3,0.1-0.6,0.1-0.9c0,0-0.1-0.1-0.1-0.2c0.1-0.3,0.1-0.7,0.2-1
			c0.1-0.4,0.3-0.7,0.5-1.1c0.2-0.3,0.3-0.6,0.5-0.9c0.1-0.1,0.2-0.2,0.3-0.3c0.2-0.2,0.5-0.4,0.7-0.6c0.3-0.2,0.6-0.5,0.9-0.7
			c0.1-0.1,0.3-0.2,0.4-0.2c0.1,0,0.1,0,0.2,0c0.1,0,0.3,0,0.3-0.2c0,0,0-0.1,0.1-0.1c0.4-0.1,0.9-0.2,1.3-0.3
			c0.4-0.1,0.7-0.1,1.1-0.3c0,0,0.1,0,0.1,0c0.7,0.2,1.4,0.3,2.1,0.5c0.5,0.2,1.1,0.4,1.6,0.7c0.3,0.1,0.6,0.3,0.8,0.6
			c0.3,0.4,0.8,0.7,0.9,1.2c0,0,0,0.4,0.3,0.3c0,0,0.1,0.1,0.1,0.1c0.1,0.5,0.3,0.9,0.5,1.4c0.1,0.2,0.1,0.6,0.1,0.9
			c0,0.7,0,1.5,0,2.2c0,0.9,0,1.7,0,2.6c0,0.5,0,1,0,1.4c0,0,0,0.1,0,0.1c0,0.1,0,0.2,0,0.3c0.1,0,0.3,0,0.4,0
			c0.3-0.3,0.8-0.4,1.1-0.6c0.4-0.2,0.9-0.4,1.4-0.4c0.7-0.1,1.4-0.2,2.1-0.1c0.6,0.1,1.2,0.2,1.7,0.4c0.3,0.1,0.6,0.2,0.8,0.4
			c0.1,0.1,0.2,0.2,0.4,0.3c0.1,0.1,0.3,0.2,0.4,0.2c0.1,0.1,0.1,0.2,0.2,0.2c0.3,0.3,0.6,0.5,0.9,0.8c0.1,0.1,0.2,0.3,0.2,0.5
			c0.1,0.2,0.3,0.4,0.4,0.7c0.1,0.4,0.4,0.7,0.4,1c0.1,0.5,0.1,1,0.1,1.5c0,0.6,0,1.2,0,1.8c0,0.3,0,0.6,0,1c0.6,0,0.8-0.8,1.4-0.8
			c0.1-0.1,0.2-0.2,0.3-0.2c0.4-0.2,0.8-0.3,1.2-0.5c0,0,0.1,0,0.1,0c0.8,0,1.7-0.1,2.5-0.1c0.6,0,1.1,0.2,1.7,0.4
			c0.3,0.1,0.6,0.1,0.8,0.3c0.3,0.2,0.6,0.3,0.8,0.6c0.4,0.4,0.9,0.8,1.3,1.2c0.2,0.2,0.3,0.6,0.5,0.9c0.1,0.2,0.3,0.5,0.3,0.7
			c0.1,0.5,0.2,0.9,0.3,1.4c0,0.2,0,0.5,0,0.8c0.3-0.2,0.6-0.3,0.8-0.4c0.2-0.1,0.5-0.2,0.7-0.2c0.7-0.2,1.4-0.3,2.1-0.2
			c0.5,0.1,0.9,0.2,1.4,0.3c0.4,0.1,0.8,0.3,1.1,0.6c0.1,0.1,0.3,0,0.4,0.1c0.2,0.2,0.4,0.4,0.6,0.6c0.2,0.2,0.3,0.3,0.5,0.5
			c0,0,0,0,0,0.1c0.1,0.3,0.3,0.5,0.4,0.8c0.2,0.4,0.5,0.8,0.6,1.3c0,0.1,0.1,0.3,0.1,0.4c0.2,0.4,0.2,0.9,0.2,1.3
			c0,0.1,0.1,0.3,0.1,0.4c0,0.5,0.1,1,0.1,1.5c0,0.3-0.1,0.5-0.1,0.8c0,0.2,0,0.4,0,0.7c0,0.3,0.1,0.5,0,0.8c0,0.3,0,0.6,0.1,0.9
			c0,0.2,0,0.3,0,0.5c0,0.2,0,0.5-0.1,0.7c0,0.2,0,0.4,0,0.6c0,0.3,0,0.6,0,0.9c0,0.3-0.1,0.5,0,0.8c0,0.4,0.1,0.8,0.1,1.2
			c0,0.3,0,0.6,0,0.9c0,0.2,0,0.4,0,0.6c0,0.5,0,0.9,0,1.4c0,0.2,0,0.5,0,0.7c0,0.5,0.1,1.1,0.1,1.6c0,0.7,0.1,1.3,0.1,2
			c0,0.5,0,1.1,0,1.6c0,0.7,0,1.4,0,2.1c0,0.4,0,0.8,0,1.3c0,0.6,0,1.3,0,1.9c0,0.5,0,1,0,1.5c0,0.4,0,0.8,0,1.2
			c-0.1,1-0.1,1.9-0.2,2.9c-0.1,0.6-0.2,1.1-0.3,1.7c0,0.2,0,0.3-0.1,0.5c0,0.1,0,0.2-0.1,0.3c0,0.1-0.1,0.2-0.1,0.2
			c0.1,0.4-0.2,0.6-0.2,1c0,0.1,0,0.2-0.1,0.3c-0.1,0.4-0.2,0.7-0.3,1.1c0,0.2,0,0.4-0.1,0.6c-0.2,0.8-0.3,1.7-0.5,2.5
			c-0.1,0.5-0.3,1-0.4,1.5c0,0.1,0,0.2,0,0.4c-0.1,0.4-0.2,0.7-0.3,1.1c-0.1,0.6-0.2,1.2-0.3,1.8c0,0,0,0.1,0,0.1
			c-0.3,0.2-0.2,0.4-0.2,0.7c0,0.2-0.1,0.5-0.2,0.7c0,0.1,0,0.3-0.1,0.4c-0.1,0.3-0.2,0.6-0.2,0.9c0,0.4-0.2,0.9-0.2,1.3
			c0,0.4-0.1,0.7-0.3,1.1c0,0.1-0.1,0.2-0.1,0.3c-0.1,0.5-0.2,1.1-0.3,1.6c-0.1,0.4-0.2,0.9-0.2,1.3c-0.1,0.5-0.2,1.1-0.3,1.6
			c0,0.2-0.1,0.4-0.2,0.7c-0.1,0.3-0.1,0.6-0.2,0.9c0,0.1-0.1,0.3-0.1,0.4c-0.1,0.3-0.1,0.6-0.1,0.9c-0.1,0.5-0.3,1.1-0.4,1.6
			c0,0.1,0,0.1,0,0.2c-0.1,0.4-0.2,0.7-0.2,1.1c-0.1,0.6-0.2,1.2-0.3,1.7c-0.1,0.6-0.3,1.2-0.4,1.8c0,0.1,0,0.1,0,0.2
			c-0.1,0.5-0.1,1-0.2,1.4c-0.2,0.5-0.5,1.1-0.9,1.5c-0.3,0.4-0.8,0.7-1.4,0.6c0,0-0.1,0-0.1,0c0,0,0,0-0.1-0.1c0,0,0,0-0.1,0.1l0,0
			c-0.4,0-0.8,0-1.3,0c-1.8,0-3.5,0-5.3,0c-3.3,0-6.6,0-9.9,0.1c-0.1,0-0.2,0-0.4,0.1c0,0-0.1,0.1-0.1,0.1c0,0-0.1,0-0.1,0
			c-0.1,0-0.1,0-0.2,0c0,0-0.1,0-0.1,0c0,0-0.1-0.1-0.1-0.1l0,0c-0.1,0-0.1,0-0.2,0l0,0c0,0-0.1,0.1-0.1,0.1c-0.4-0.2-0.7,0-1.1,0
			c-0.1,0-0.1,0-0.2,0c0,0-0.1,0-0.1,0c-0.1,0-0.1,0-0.2,0c0,0-0.1,0-0.1,0c-0.1,0-0.1,0-0.2,0c0,0-0.1,0-0.1,0c-0.1,0-0.1,0-0.2,0
			c-0.4,0-0.9,0-1.3,0c0,0,0,0-0.1,0l0,0c0,0,0,0-0.1-0.1c0,0,0,0-0.1,0c0,0-0.1,0-0.1,0c0,0,0,0-0.1,0c0,0-0.1,0-0.1,0
			c0,0,0,0-0.1,0c0,0-0.1,0-0.1,0c0,0,0,0-0.1,0c0,0-0.1,0-0.1,0c0,0,0,0-0.1,0c0,0,0,0-0.1,0.1l0,0c-0.1,0-0.2,0-0.4,0.1
			c-0.3,0-0.5,0-0.8-0.1l-0.1-0.1c0,0,0,0-0.1,0c0,0-0.1,0-0.1,0c0,0,0,0-0.1,0c0,0-0.1,0-0.1,0c0,0,0,0-0.1,0c0,0-0.1,0-0.1,0
			c0,0,0,0-0.1,0c0,0-0.1,0-0.1,0c0,0,0,0-0.1,0c0,0-0.1,0-0.1,0c0,0,0,0-0.1,0c0,0-0.1,0-0.1,0c0,0,0,0-0.1,0c0,0,0,0-0.1,0.1
			c-0.1,0-0.2,0-0.3,0c0,0,0,0-0.1-0.1c0,0,0,0-0.1,0c0,0-0.1,0-0.1,0c0,0,0,0-0.1,0c0,0-0.1,0-0.1,0l-0.1,0.1c-0.2,0-0.3,0-0.5,0
			l-0.1-0.1c0,0-0.1,0-0.1,0c0,0,0,0-0.1,0c0,0-0.1,0-0.1,0c0,0,0,0-0.1,0c0,0-0.1,0-0.1,0c0,0,0,0-0.1,0c0,0-0.1,0-0.1,0
			c0,0,0,0-0.1,0c0,0-0.1,0-0.1,0c0,0,0,0-0.1,0c0,0-0.1,0-0.1,0c0,0,0,0-0.1,0c0,0,0,0-0.1,0.1c-0.2,0-0.3,0-0.5-0.1
			c-0.2-0.1-0.4-0.2-0.5-0.2c-0.1,0-0.2-0.1-0.3-0.1c-0.2,0-0.4-0.1-0.5-0.3c-0.2-0.2-0.3-0.5-0.5-0.7c0,0-0.1-0.1-0.1-0.1
			c-0.3-0.1-0.2-0.3-0.2-0.4c-0.2-0.1-0.2-0.3-0.3-0.5c0-0.2-0.2-0.4-0.2-0.6c-0.1-0.2-0.1-0.4-0.2-0.7c-0.1-0.3,0-0.7-0.3-0.9
			c0,0,0,0,0,0c0,0,0,0,0,0c0,0,0,0,0,0c0,0,0,0,0-0.1c-0.2-0.7-0.4-1.3-0.5-2c0-0.2-0.1-0.3-0.1-0.5c-0.1-0.4-0.3-0.7-0.4-1.1
			c0,0,0,0,0,0c0,0,0,0,0,0c0,0,0,0,0-0.1c-0.1-0.2-0.2-0.4-0.2-0.7c0-0.2-0.1-0.3-0.2-0.5c0-0.3,0-0.7-0.3-0.9
			c0.1-0.5-0.1-0.9-0.5-1.2c0,0-0.1-0.1-0.1-0.1c-0.1-0.1-0.2-0.3-0.2-0.5c-0.1-0.2-0.1-0.4-0.2-0.6c0-0.1-0.1-0.1-0.2-0.1
			c-0.1-0.1,0.1-0.4-0.2-0.4c0,0-0.1,0-0.1-0.1c-0.3-0.4-0.4-0.9-0.7-1.4c-0.2-0.3-0.4-0.6-0.6-0.9c0-0.1,0-0.2-0.1-0.3
			c-0.1-0.2-0.2-0.5-0.3-0.7c-0.1-0.3-0.2-0.5-0.4-0.7c0,0,0,0-0.1,0c0,0,0,0-0.1,0c-0.1-0.3-0.2-0.6-0.4-0.8
			c-0.3-0.3-0.3-0.9-0.7-1.2c-0.2-0.1-0.2-0.5-0.3-0.7c0-0.1-0.1-0.2-0.2-0.3c-0.2-0.3-0.4-0.5-0.6-0.8c-0.2-0.4-0.4-0.9-0.7-1.3
			c-0.1-0.2-0.3-0.4-0.4-0.6c-0.1-0.2-0.1-0.5-0.3-0.7c-0.3-0.3-0.4-0.6-0.5-1c0,0-0.1,0-0.2,0c-0.1-0.1-0.1-0.2-0.2-0.3
			c0,0,0,0,0-0.1c0,0,0,0-0.1,0c0-0.3-0.1-0.5-0.3-0.7c-0.1-0.2-0.2-0.3-0.3-0.5c-0.1-0.1-0.2-0.2-0.2-0.3c0,0-0.1-0.1-0.1-0.1
			c-0.2-0.3-0.3-0.7-0.5-1c-0.1-0.3-0.3-0.5-0.4-0.7c0,0,0,0-0.1-0.1c0-0.2-0.3-0.2-0.2-0.4c0-0.1-0.1-0.2-0.2-0.3
			c0-0.1-0.1-0.2-0.1-0.2l0,0c0,0,0,0,0-0.1c0,0-0.1-0.1-0.1-0.1c0,0,0,0,0-0.1c0,0,0-0.1,0-0.1c0,0-0.1-0.1-0.1-0.1
			c0-0.2-0.1-0.4-0.3-0.6c-0.3-0.3-0.3-0.8-0.6-1.1c0,0,0-0.1,0-0.1c-0.1-0.1-0.1-0.3-0.2-0.4c0-0.5-0.2-0.9-0.3-1.4c0,0,0,0,0,0
			c0,0,0,0,0,0c0,0,0-0.1-0.1-0.1c0,0-0.1-0.1-0.1-0.1c-0.1-0.3-0.1-0.5-0.2-0.8c0,0,0,0-0.1-0.1c0,0,0,0,0-0.1c0-0.1,0.1-0.2,0-0.3
			c-0.1-0.4-0.3-0.8-0.4-1.1c-0.1-0.2-0.1-0.4-0.1-0.6c0-0.1-0.1-0.2-0.1-0.2c-0.1-0.1-0.2-0.3-0.3-0.4c0.1-0.1,0.1-0.3,0-0.4
			c-0.2-0.2-0.2-0.5-0.2-0.8c0,0,0-0.1,0-0.1c-0.1-0.4-0.2-0.8-0.4-1.1c-0.1-0.2-0.1-0.5-0.2-0.7c0,0,0,0-0.1,0c0,0,0,0-0.1,0
			c-0.1-0.3,0-0.6-0.2-0.8c-0.1-0.2-0.1-0.5-0.2-0.8c0-0.1-0.1-0.1-0.1-0.2c-0.1-0.5-0.3-1-0.4-1.5c0,0,0,0,0-0.1
			c-0.1-0.5-0.4-0.9-0.4-1.4c0-0.3-0.2-0.7-0.3-1c0-0.1-0.1-0.2-0.2-0.3c0,0,0-0.1,0-0.1c-0.1-0.3-0.1-0.5-0.2-0.8
			c-0.1-0.3-0.2-0.5-0.3-0.8c-0.1-0.3-0.2-0.6-0.3-0.9c0,0,0,0,0-0.1c-0.1-0.4-0.2-0.8-0.2-1.1c0-0.1-0.1-0.2-0.1-0.3
			c0-0.2,0-0.4-0.1-0.6c0-0.1-0.1-0.2-0.1-0.3c-0.1-0.1-0.2-0.2-0.2-0.2c0-0.1,0.1-0.3,0.1-0.4c-0.1-0.4-0.2-0.9-0.4-1.3
			c-0.1-0.2-0.1-0.5-0.2-0.7c0-0.1,0-0.2-0.1-0.3c-0.2-0.2,0-0.7-0.4-0.7c0-0.2,0-0.4-0.1-0.5c-0.1-0.3-0.1-0.5-0.2-0.8
			c0-0.2-0.1-0.4-0.1-0.6c0.1-0.5-0.1-1,0-1.4c0,0,0,0,0.1-0.1c0,0,0,0-0.1-0.1c0-0.4,0.1-0.8,0.1-1.2c0,0,0,0,0-0.1
			C39.1,251.7,39.1,251.6,39.1,251.6z M94.8,280.2C94.8,280.2,94.8,280.2,94.8,280.2c0.1-0.6,0.2-1.1,0.3-1.5c0.1-0.3,0.2-0.7,0.3-1
			c0.1-0.5,0.1-1.1,0.3-1.6c0.1-0.3,0-0.7,0.2-1c0.1-0.2,0.1-0.5,0.1-0.8c0-0.7,0-1.5,0-2.2c0-1.4,0-2.9,0-4.3c0-1.5,0-2.9-0.1-4.4
			c0-1.1-0.1-2.2-0.2-3.4c0-0.5,0-1.1,0-1.6c0-0.6,0-1.2,0-1.9c0-0.6,0-1.2,0-1.7c0-0.6,0-1.3,0-1.9c0-0.6,0-1.2,0-1.7
			c0-0.6,0-1.3,0-1.9c0-0.6,0-1.2,0-1.8c0-0.6,0-1.2-0.2-1.8c-0.1-0.2-0.1-0.4-0.2-0.7c-0.1-0.2-0.1-0.4-0.2-0.5
			c-0.3-0.3-0.3-0.6-0.6-0.9c-0.5-0.5-1-0.9-1.7-0.8c-0.1,0-0.2,0-0.3,0c-0.4,0-0.7,0-1.1,0.2c-0.3,0.2-0.6,0.3-0.9,0.5
			c-0.1,0.1-0.3,0.2-0.4,0.4c-0.1,0.1-0.1,0.1-0.1,0.2c-0.1,0.2-0.3,0.4-0.3,0.6c-0.2,0.6-0.3,1.3-0.3,2c0,1,0,1.9,0,2.9
			c0,0.8,0,1.6,0,2.4c0,1,0,1.9,0,2.9c0,0.9,0,1.7,0,2.6c0,0.3,0.1,0.6-0.2,0.9c-0.3,0.4-0.7,0.6-1.1,0.6c-0.3,0-0.7-0.1-1-0.2
			c-0.1-0.1-0.3-0.2-0.3-0.4c-0.1-0.4-0.1-0.8-0.1-1.2c0-5.4,0-10.7,0-16.1c0-0.5,0-1.1-0.2-1.5c-0.2-0.4-0.5-0.8-0.8-1.1
			c-0.1-0.1-0.2-0.2-0.3-0.3c-0.3-0.2-0.6-0.2-0.9-0.4c-0.4-0.3-0.8-0.2-1.2-0.3c-0.6-0.1-1.2,0-1.8,0.1c-0.1,0.1-0.2,0.2-0.3,0.3
			c-0.5,0.2-0.9,0.4-1.2,0.8c0,0.1-0.1,0.1-0.1,0.2c-0.2,0.3-0.4,0.5-0.6,0.8c-0.2,0.4-0.2,0.9-0.2,1.4c0,0.6,0,1.2,0,1.9
			c0,0.6,0,1.2,0,1.8c0,0.6,0,1.2,0,1.8c0,0.6,0,1.2,0,1.8c0,0.6,0,1.2,0,1.9c0,1,0,2.1,0,3.1c0,0.2,0,0.4,0,0.6
			c0,0.4,0.2,1-0.4,1.3c-0.1,0-0.1,0.2-0.1,0.2c-0.3,0.1-0.6,0.3-0.9,0.4c-0.3,0.1-0.7,0.2-1-0.1c-0.1-0.1-0.3-0.1-0.5-0.1
			c-0.1,0-0.2-0.1-0.3-0.1c-0.4-0.3-0.5-0.7-0.6-1.1c-0.1-0.6,0-1.1,0-1.7c0-0.6,0-1.2,0-1.9c0-0.6,0-1.1,0-1.7c0-0.7,0-1.3,0-2
			c0-0.6,0-1.1,0-1.7c0-0.7,0-1.3,0-2c0-0.6,0-1.1,0-1.7c0-0.7,0-1.3,0-2c0-0.6,0-1.1,0-1.7c0-0.6,0-1.3,0-1.9c0-0.6,0-1.2,0-1.8
			c-0.1-0.7,0.2-1.4-0.3-2c-0.2-0.3-0.4-0.8-0.7-1c-0.1,0-0.1-0.1-0.1-0.2c-0.1-0.1-0.2-0.1-0.3-0.2c-0.2-0.1-0.4-0.3-0.6-0.4
			c-0.6-0.2-1.2-0.3-1.9-0.2c-0.5,0-1.1,0.1-1.6,0.3c-0.6,0.3-1.1,0.7-1.4,1.3c-0.3,0.4-0.4,0.9-0.4,1.4c0,0.6,0,1.2,0,1.9
			c0,0.6,0,1.2,0,1.8c0,0.6,0,1.2,0,1.9c0,0.6,0,1.2,0,1.8c0,0.6,0,1.2,0,1.9c0,0.6,0,1.2,0,1.8c0,0.6,0,1.2,0,1.9
			c0,0.6,0,1.2,0,1.8c0,0.6,0,1.2,0,1.9c0,0.6,0,1.2,0,1.8c0,0.6,0,1.3,0,1.9c0,0.6,0,1.1,0,1.7c0,0.4-0.5,1.1-0.9,1.2
			c0,0-0.1,0-0.1,0c-0.4,0-0.8,0.2-1.2,0c-0.2-0.1-0.4,0-0.5-0.2c-0.1-0.2-0.3-0.3-0.4-0.5c-0.1-0.3-0.2-0.5-0.2-0.8
			c0-0.2,0-0.5,0-0.7c0-1,0-2,0-3c0-0.6,0-1.2,0-1.8c0-0.6,0-1.2,0-1.8c0-0.8,0-1.6,0-2.3c0-0.8,0-1.6,0-2.3c0-0.8,0-1.6,0-2.4
			c0-0.8,0-1.6,0-2.3c0-0.6,0-1.2,0-1.9c0-0.9,0-1.7,0-2.6c0-0.5,0-1.1,0-1.6c0-0.8,0-1.6,0-2.4c0-0.8,0-1.6,0-2.4
			c0-0.6,0-1.2,0-1.8c0-0.8,0-1.6,0-2.4c0-0.5,0.1-1.1-0.2-1.6c-0.3-0.5-0.5-1.1-1.1-1.4c-0.2-0.1-0.2-0.3-0.4-0.3
			c-0.5-0.2-1-0.3-1.5-0.4c-0.6-0.1-1.3,0-1.9,0.2c-0.6,0.2-1.1,0.6-1.6,1.1c-0.4,0.5-0.6,1.1-0.7,1.7c-0.1,0.7,0,1.4,0,2.1
			c0,1.2,0,2.3,0.1,3.5c0,0.3,0.1,0.6,0.1,0.9c0,0.6-0.1,1.2-0.1,1.8c0,0.7,0.1,1.3,0.1,2c0,1,0,1.9,0,2.9c0,1.2,0,2.4,0,3.6
			c0,2.4,0,4.8,0,7.1c0,0.2,0,0.4,0,0.5c0,0.7,0,1.3,0,2c0,0.6,0,1.1,0,1.7c0,0.6,0,1.2,0,1.9c0,1,0.1,2,0.1,3
			c0,0.5-0.1,0.9-0.1,1.4c0.1,0.5,0.1,1,0.1,1.5c0,0.4,0.1,0.9,0.1,1.3c0,0.5-0.1,0.9-0.1,1.4c0,0.6,0.1,1.2,0.1,1.9
			c0,0.7,0.1,1.4,0,2.1c0,0.3-0.2,0.7-0.4,1c-0.1,0.2-0.2,0.1-0.3,0.2c-0.2,0.3-0.5,0.4-0.8,0.4c-0.2,0.1-0.5,0-0.7-0.1
			c-0.2-0.1-0.4-0.2-0.6-0.3c-0.1,0-0.1-0.1-0.1-0.1c-0.1-0.4-0.3-0.7-0.4-1.1c-0.2-0.6-0.4-1.2-0.6-1.9c-0.1-0.2-0.2-0.4-0.2-0.6
			c-0.2-0.5-0.4-1-0.6-1.5c-0.1-0.2-0.2-0.4-0.3-0.6c-0.1-0.2-0.1-0.4-0.2-0.6c0-0.1-0.1-0.2-0.1-0.3c-0.1-0.3-0.2-0.6-0.3-0.9
			c-0.1-0.2-0.2-0.5-0.3-0.7c-0.2-0.4-0.3-0.9-0.5-1.3c-0.2-0.4-0.1-0.9-0.6-1.2c0,0,0,0,0-0.1c-0.1-0.4-0.2-0.8-0.4-1.2
			c-0.2-0.5-0.4-1-0.6-1.5c-0.2-0.4-0.4-0.8-0.7-1.2c-0.2-0.3-0.5-0.3-0.6-0.6c-0.3-0.4-0.8-0.6-1.3-0.7c-0.7-0.1-1.4-0.1-2.1,0
			c-0.7,0.1-1.4,0.3-2.1,0.6c0,0-0.1,0-0.1,0.1c-0.2,0.2-0.4,0.3-0.6,0.5c0,0-0.1,0.1-0.1,0.2c0,0.1-0.1,0.2-0.1,0.3
			c-0.1,0.3-0.3,0.6-0.3,0.9c-0.1,0.4-0.1,0.8-0.1,1.1c0,0.5,0.1,1.1,0.2,1.6c0.1,0.4,0.3,0.8,0.4,1.3c0.1,0.4,0.1,0.8,0.4,1.2
			c0.1,0.1,0.1,0.2,0.1,0.3c-0.1,0.5,0.2,1,0.3,1.4c0.2,0.7,0.3,1.5,0.7,2.1c0.1,0.1,0,0.3,0.1,0.4c0.1,0.4,0.3,0.8,0.4,1.2
			c0.1,0.5,0.2,1,0.3,1.4c0.1,0,0.1,0,0.1,0c0.1,0.2,0.1,0.4,0.2,0.6c0.1,0.3,0.1,0.6,0.2,0.9c0.1,0.3,0.2,0.7,0.3,1
			c0.1,0.3,0.2,0.7,0.3,1c0.1,0.3,0.2,0.6,0.3,0.9c0.2,0.7,0.3,1.3,0.5,2c0.1,0.5,0.3,1,0.5,1.4c0.1,0.4,0.2,0.8,0.3,1.1
			c0.1,0.3,0.2,0.5,0.2,0.8c0.1,0.5,0.2,0.9,0.4,1.4c0.1,0.3,0.2,0.6,0.2,0.8c0.1,0.2,0.1,0.4,0.2,0.6c0.2,0.5,0.4,1,0.4,1.5
			c0,0.6,0.3,1.1,0.6,1.5c0.3,0.5,0.5,1,0.9,1.4c0.4,0.6,0.7,1.2,1,1.9c0.1,0.2,0.2,0.5,0.3,0.6c0.3,0.4,0.6,0.8,0.8,1.3
			c0.2,0.3,0.2,0.6,0.4,0.8c0.3,0.3,0.4,0.6,0.5,1c0.2,0.3,0.3,0.6,0.5,0.9c0.2,0.3,0.3,0.5,0.5,0.8c0,0,0.1,0,0.1,0.1
			c0.1,0.2,0.1,0.3,0.2,0.5c0.2,0.3,0.4,0.6,0.5,1c0.1,0.2,0.2,0.4,0.3,0.7c0.2,0.3,0.4,0.6,0.6,0.9c0.2,0.3,0.2,0.6,0.5,0.8
			c0.4,0.3,0.4,0.7,0.7,1.1c0.3,0.4,0.5,0.9,0.8,1.4c0.2,0.3,0.3,0.7,0.5,1c0.1,0.1,0.2,0.1,0.3,0.2c0,0.1,0,0.2,0.1,0.3
			c0.2,0.3,0.4,0.6,0.5,0.9c0.2,0.4,0.5,0.8,0.7,1.3c0.2,0.4,0.5,0.9,0.5,1.4c0,0.2,0.1,0.3,0.2,0.5c0.1,0.1,0,0.2,0.1,0.3
			c0.1,0.3,0.3,0.7,0.3,1.1c0,0,0,0.1,0,0.1c0.1,0.1,0.2,0.3,0.2,0.4c0.1,0.6,0.1,1.1,0.5,1.6c0,0,0,0,0,0.1c0,0.2,0.1,0.5,0.1,0.7
			c0.1,0.4,0.2,0.8,0.3,1.1c0.2,0.7,0.3,1.3,0.5,2c0.1,0.2,0.2,0.5,0.3,0.7c0,0,0.1,0.1,0.2,0.1c0.4,0,0.8,0,1.2,0
			c2.2,0,4.5,0,6.7,0c1.9,0,3.8,0,5.7-0.1c0.8,0,1.7,0,2.5,0c0.8,0,1.5,0,2.3,0c0.5,0,1,0,1.5,0c1.2,0,2.3-0.1,3.5-0.1
			c0.6,0,1.3,0,1.9,0c0.1,0,0.3-0.1,0.3-0.2c0.1-0.4,0.2-0.7,0.2-1.1c0.1-0.6,0.1-1.2,0.4-1.8c0-0.1,0.1-0.2,0.1-0.3
			c0-1,0.5-1.9,0.5-2.9c0,0,0-0.1,0-0.1c0.1-0.3,0.1-0.6,0.2-1c0-0.1,0-0.2,0-0.2c0.3-0.1,0.2-0.4,0.2-0.6c0.1-0.5,0.2-1,0.3-1.4
			c0-0.2,0.1-0.4,0.1-0.6c0-0.1,0.1-0.2,0.1-0.3c0.1-0.3,0.1-0.6,0.1-0.9c0.1-0.5,0.1-1,0.3-1.5c0.2-0.4,0.2-0.9,0.3-1.3
			c0.2-0.7,0.3-1.5,0.4-2.3c0.1-0.4,0.1-0.7,0.2-1c0-0.2,0.1-0.3,0.2-0.5c0.1-0.4,0.2-0.9,0.2-1.3c0-0.3,0.1-0.5,0.1-0.8
			c0-0.3,0.1-0.6,0.2-0.9c0.2-0.4,0.2-0.9,0.3-1.3c0.1-0.3,0.1-0.6,0.1-1c0-0.1,0.2-0.2,0.2-0.3c0.1-0.2,0.1-0.5,0.1-0.7
			c0.1-0.7,0.2-1.3,0.3-2C94.5,281.8,94.6,281,94.8,280.2z"/>
	</g>
</g>
</svg>
